<svg xmlns="http://www.w3.org/2000/svg" viewBox="0 0 960 640" role="img" aria-labelledby="t d"><title id="t">Evolução por módulos Epiper</title><desc id="d">Crescimento modular da plataforma com novos canais e recursos.</desc><defs><linearGradient id="p" x1="0" x2="1"><stop stop-color="#7c57f7"/><stop offset="1" stop-color="#5d39cf"/></linearGradient><linearGradient id="g" x1="0" x2="1"><stop stop-color="#2ec66d"/><stop offset="1" stop-color="#18aa56"/></linearGradient><filter id="s"><feDropShadow dx="0" dy="14" stdDeviation="16" flood-color="#5533a3" flood-opacity=".12"/></filter><marker id="a" viewBox="0 0 10 10" refX="8" refY="5" markerWidth="7" markerHeight="7" orient="auto"><path d="M0 0l10 5-10 5z" fill="#6f46ff"/></marker></defs><path d="M130 470C300 470 370 420 452 350S650 228 826 144" fill="none" stroke="#6f46ff" stroke-width="5" marker-end="url(#a)"/><g filter="url(#s)" font-family="Arial,sans-serif"><g transform="translate(54 380)"><rect width="210" height="150" rx="28" fill="#fff"/><rect x="24" y="22" width="54" height="54" rx="16" fill="url(#p)"/><text x="51" y="56" text-anchor="middle" font-size="22" font-weight="700" fill="#fff">1</text><text x="24" y="104" font-size="17" font-weight="700" fill="#2b2054">Comece com o essencial</text><text x="24" y="128" font-size="11" fill="#766d8d">Escolha o módulo com maior impacto</text></g><g transform="translate(322 260)"><rect width="260" height="190" rx="30" fill="#fff"/><text x="24" y="38" font-size="17" font-weight="700" fill="#2b2054">Adicione novos módulos</text><g transform="translate(24 62)"><rect width="88" height="46" rx="14" fill="#f0eaff"/><text x="44" y="28" text-anchor="middle" font-size="11" font-weight="700" fill="#6845da">Pedido</text><rect x="100" width="112" height="46" rx="14" fill="#e8fff0"/><text x="156" y="28" text-anchor="middle" font-size="11" font-weight="700" fill="#14994c">Televendas</text><rect y="58" width="108" height="46" rx="14" fill="#f0eaff"/><text x="54" y="86" text-anchor="middle" font-size="11" font-weight="700" fill="#6845da">E-commerce</text><rect x="120" y="58" width="100" height="46" rx="14" fill="#f0eaff"/><text x="170" y="86" text-anchor="middle" font-size="11" font-weight="700" fill="#6845da">Integrações</text></g></g><g transform="translate(640 92)"><rect width="270" height="250" rx="34" fill="#fff"/><text x="26" y="42" font-size="18" font-weight="700" fill="#2b2054">Expanda o ecossistema</text><text x="26" y="67" font-size="11" fill="#766d8d">Novos canais, dados e automações</text><g transform="translate(26 92)"><rect width="96" height="50" rx="15" fill="url(#p)"/><text x="48" y="30" text-anchor="middle" font-size="11" font-weight="700" fill="#fff">Produtos</text><rect x="112" width="106" height="50" rx="15" fill="url(#g)"/><text x="165" y="30" text-anchor="middle" font-size="11" font-weight="700" fill="#fff">Indicadores</text><rect y="64" width="100" height="50" rx="15" fill="#f0eaff"/><text x="50" y="94" text-anchor="middle" font-size="11" font-weight="700" fill="#6845da">Clientes</text><rect x="116" y="64" width="108" height="50" rx="15" fill="#f0eaff"/><text x="170" y="94" text-anchor="middle" font-size="11" font-weight="700" fill="#6845da">Automação</text></g><rect x="26" y="218" width="218" height="8" rx="4" fill="#ded5f7"/><rect x="26" y="218" width="184" height="8" rx="4" fill="#20b65b"/></g></g><g fill="#6f46ff"><circle cx="286" cy="438" r="7"/><circle cx="604" cy="276" r="7"/><circle cx="826" cy="144" r="7"/></g><text x="480" y="585" text-anchor="middle" font-family="Arial,sans-serif" font-size="13" font-weight="700" fill="#4e3a91">A plataforma cresce junto com a maturidade da operação — sem reconstruir o que já funciona.</text></svg>